<svg width="17" height="17" viewBox="0 0 17 17" fill="none" xmlns="http://www.w3.org/2000/svg">
<path d="M16.8512 16.133L12.72 12.0018C13.8282 10.7277 14.4991 9.06541 14.4991 7.24856C14.4991 3.24922 11.2461 0 7.25057 0C3.25124 0 0.00201416 3.25299 0.00201416 7.24856C0.00201416 11.2441 3.25501 14.4971 7.25057 14.4971C9.06742 14.4971 10.7297 13.8262 12.0038 12.718L16.135 16.8492C16.2331 16.9472 16.365 17 16.4931 17C16.6213 17 16.7532 16.951 16.8512 16.8492C17.0472 16.6532 17.0472 16.329 16.8512 16.133ZM1.01598 7.24856C1.01598 3.81087 3.81288 1.01774 7.2468 1.01774C10.6845 1.01774 13.4776 3.81463 13.4776 7.24856C13.4776 10.6825 10.6845 13.4831 7.2468 13.4831C3.81288 13.4831 1.01598 10.6863 1.01598 7.24856Z" fill="white"/>
</svg>
